<?xml version="1.0" encoding="UTF-8"?>
<!DOCTYPE svg PUBLIC "-//W3C//DTD SVG 1.1//EN" "http://www.w3.org/Graphics/SVG/1.1/DTD/svg11.dtd">
<!-- Creator: CorelDRAW X7 -->
<svg xmlns="http://www.w3.org/2000/svg" xml:space="preserve" width="210mm" height="297mm" version="1.1" style="shape-rendering:geometricPrecision; text-rendering:geometricPrecision; image-rendering:optimizeQuality; fill-rule:evenodd; clip-rule:evenodd"
viewBox="0 0 21000 29700"
 xmlns:xlink="http://www.w3.org/1999/xlink">
 <defs>
  <style type="text/css">
   <![CDATA[
    .fil0 {fill:white}
   ]]>
  </style>
 </defs>
 <g id="Camada_x0020_1">
  <metadata id="CorelCorpID_0Corel-Layer"/>
  <path class="fil0" d="M3867 11999c0,584 235,696 629,1089l2366 2367c529,529 1040,1040 1569,1569 267,267 517,517 784,784 397,397 513,642 1102,642 414,0 717,-406 941,-629l4719 -4720c399,-399 642,-502 642,-1102 0,-249 -126,-439 -255,-567 -321,-322 -833,-346 -1201,-67 -174,132 -3762,3747 -4254,4239 -158,158 -513,551 -666,654 -140,-93 -4130,-4117 -4577,-4564 -359,-359 -459,-517 -977,-517 -422,0 -822,401 -822,822z"/>
 </g>
</svg>
