<?xml version="1.0" encoding="UTF-8"?>
<!DOCTYPE svg PUBLIC "-//W3C//DTD SVG 1.1//EN" "http://www.w3.org/Graphics/SVG/1.1/DTD/svg11.dtd">
<!-- Creator: CorelDRAW X7 -->
<svg xmlns="http://www.w3.org/2000/svg" xml:space="preserve" width="700mm" height="151.763mm" version="1.1" style="shape-rendering:geometricPrecision; text-rendering:geometricPrecision; image-rendering:optimizeQuality; fill-rule:evenodd; clip-rule:evenodd"
viewBox="0 0 70000 15176"
 xmlns:xlink="http://www.w3.org/1999/xlink">
 <defs>
  <style type="text/css">
   <![CDATA[
    .fil0 {fill:#313131}
   ]]>
  </style>
 </defs>
 <g id="Camada_x0020_1">
  <metadata id="CorelCorpID_0Corel-Layer"/>
  <path class="fil0" d="M20222 9172l32633 0 0 -2141 -881 265c-1128,281 -1681,407 -2906,587 -351,52 -663,77 -1023,124 -1026,134 -2329,146 -3348,146 -1520,0 -2957,-145 -4301,-340 -1469,-212 -2440,-441 -3847,-792 -1610,-403 -3195,-747 -4859,-929 -1016,-111 -2213,-191 -3385,-208l-919 0c-623,9 -1222,40 -1763,98 -192,20 -353,17 -542,43 -366,52 -687,73 -1049,124 -688,97 -1325,211 -1964,356 -426,98 -986,226 -1397,363 -121,40 -332,128 -449,137l0 2167z"/>
 </g>
</svg>
